<svg xmlns="http://www.w3.org/2000/svg" width="1037" height="241" viewBox="0 0 1037 241">
<g>
<path d="M 197.18 238.07 C194.13,240.47 193.28,240.47 189.30,238.04 C184.68,235.23 184.16,231.03 187.42,223.01 C188.84,219.52 189.88,216.59 189.75,216.50 C189.61,216.40 181.40,212.14 171.50,207.02 C161.60,201.90 151.95,196.66 150.06,195.38 L 146.61 193.05 L 140.45 198.97 C137.06,202.23 133.09,205.19 131.64,205.56 C126.65,206.81 119.80,200.00 121.58,195.57 C122.09,194.32 127.91,188.13 134.51,181.82 C146.03,170.80 146.74,170.31 151.71,169.72 C161.27,168.59 178.00,159.31 178.00,155.14 C178.00,154.21 176.62,151.78 174.94,149.74 C173.25,147.69 172.15,145.56 172.49,145.01 C172.84,144.45 174.86,144.00 176.99,144.00 C179.97,144.00 181.33,144.60 182.93,146.63 C186.93,151.72 186.10,153.19 170.49,168.66 C162.52,176.57 155.88,183.42 155.74,183.89 C155.61,184.36 164.39,189.33 175.26,194.94 C189.17,202.11 195.16,204.74 195.50,203.81 C198.25,196.32 199.88,190.62 199.47,189.96 C199.20,189.51 197.29,188.61 195.24,187.96 C190.77,186.53 177.00,179.15 177.01,178.18 C177.01,177.81 180.86,173.96 185.55,169.64 C190.28,165.29 192.31,163.17 194.67,162.68 C196.77,162.25 199.14,163.10 203.90,164.81 C204.55,165.05 205.25,165.30 206.00,165.56 C212.57,167.90 214.56,168.17 222.00,167.73 C232.60,167.10 240.15,164.33 248.27,158.10 C260.11,149.01 266.27,136.63 266.60,121.25 L 266.80 112.00 L 276.95 102.35 C283.25,96.36 287.46,93.06 288.04,93.64 C288.55,94.15 289.88,98.12 290.99,102.45 C297.63,128.43 288.33,157.47 267.82,174.74 C255.31,185.28 237.69,191.98 222.43,191.99 L 215.36 192.00 L 207.50 214.07 C201.63,230.53 199.01,236.63 197.18,238.07 ZM 751.20 164.00 C733.07,169.24 712.81,161.53 705.51,146.61 C696.28,127.75 703.98,105.09 722.38,96.95 C729.77,93.68 742.93,93.18 751.66,95.83 C755.76,97.07 759.56,98.97 760.97,100.47 C762.28,101.86 763.72,103.00 764.17,103.00 C764.63,103.00 765.00,94.90 765.00,85.00 L 765.00 67.00 L 785.02 67.00 L 784.76 115.25 L 784.50 163.50 L 765.50 163.50 L 765.19 159.27 L 764.89 155.04 L 759.90 158.99 C757.15,161.16 753.24,163.41 751.20,164.00 ZM 540.50 172.75 L 540.50 190.50 L 521.00 191.07 L 521.00 94.93 L 530.75 95.21 L 540.50 95.50 L 540.81 99.78 L 541.12 104.06 L 545.28 100.49 C551.12,95.49 558.24,93.62 568.94,94.26 C586.48,95.32 596.54,102.20 602.10,116.95 C604.82,124.18 604.43,137.12 601.27,144.18 C595.64,156.76 580.24,166.06 565.20,165.98 C559.67,165.95 548.12,161.51 544.54,158.04 C542.82,156.37 541.20,155.00 540.95,155.00 C540.70,155.00 540.50,162.99 540.50,172.75 ZM 365.78 148.89 L 365.50 163.50 L 355.95 163.78 C350.70,163.94 346.09,163.75 345.70,163.37 C345.32,162.98 345.00,141.78 345.00,116.24 L 345.00 69.82 L 373.25 70.25 C397.89,70.63 402.36,70.95 408.25,72.71 C424.46,77.56 432.27,88.53 430.64,104.13 C428.71,122.59 413.50,133.00 388.44,133.00 C382.86,133.00 375.54,133.29 372.17,133.64 L 366.05 134.28 ZM 23.50 99.06 L 22.97 164.00 L 13.65 164.00 C8.53,164.00 4.03,163.70 3.67,163.33 C3.30,162.97 3.00,141.82 3.00,116.33 L 3.00 70.00 L 22.76 70.00 L 34.76 84.25 C57.59,111.34 73.00,130.23 73.00,131.11 C73.00,131.60 73.45,132.00 74.00,132.00 C74.65,132.00 75.00,121.00 75.00,101.00 L 75.00 70.00 L 94.00 70.00 L 94.15 115.50 C94.23,140.52 94.35,161.56 94.40,162.25 C94.47,163.14 92.01,163.58 85.83,163.79 L 77.16 164.08 L 55.28 137.79 C43.25,123.33 31.18,108.70 28.45,105.28 ZM 929.57 164.92 C908.81,168.71 888.03,159.95 880.27,144.14 C877.87,139.25 877.50,137.31 877.50,129.50 C877.50,121.69 877.87,119.75 880.27,114.86 C886.74,101.69 901.03,94.00 919.03,94.00 C934.87,94.00 946.55,98.28 954.09,106.84 C961.89,115.70 964.19,132.00 959.22,143.23 C954.52,153.86 942.68,162.52 929.57,164.92 ZM 177.61 99.78 C176.70,101.55 175.82,103.00 175.66,103.00 C175.50,103.00 174.07,101.64 172.47,99.97 C169.61,96.98 158.89,91.00 156.40,91.00 C153.65,91.00 154.06,88.80 157.87,83.19 C169.93,65.43 190.45,53.44 212.17,51.48 L 219.84 50.78 L 221.91 45.14 C223.04,42.04 226.68,31.85 229.98,22.50 C233.28,13.15 236.75,4.94 237.68,4.25 C240.36,2.28 246.70,2.70 249.00,5.00 C251.67,7.67 251.52,10.68 248.32,18.68 C246.84,22.36 246.06,25.53 246.57,25.71 C250.62,27.14 289.50,47.89 289.50,48.62 C289.50,49.13 287.58,51.29 285.23,53.41 L 280.97 57.26 L 275.23 54.20 C260.36,46.24 243.26,38.00 241.63,38.00 C240.58,38.00 235.96,49.15 236.03,51.50 C236.05,52.05 238.19,53.22 240.78,54.11 C247.40,56.36 262.00,63.83 262.00,64.96 C262.00,65.48 261.35,66.26 260.56,66.71 C259.76,67.15 255.53,70.77 251.15,74.74 L 243.18 81.97 L 237.34 79.36 C225.50,74.06 207.39,75.20 195.51,81.99 C189.79,85.27 180.18,94.81 177.61,99.78 ZM 845.58 165.02 C835.78,166.29 831.60,166.12 823.50,164.13 C809.96,160.79 801.41,154.21 796.26,143.16 C794.03,138.38 793.82,136.84 794.20,128.66 C794.54,121.34 795.18,118.36 797.35,113.84 C803.96,100.06 819.06,93.00 839.14,94.30 C852.65,95.17 862.30,100.23 867.92,109.39 C870.89,114.24 873.14,123.36 872.80,129.19 L 872.50 134.50 L 843.25 134.77 C815.63,135.02 814.00,135.13 814.00,136.87 C814.00,139.87 818.28,145.31 822.53,147.71 C832.18,153.15 844.49,153.03 855.68,147.36 C860.92,144.71 861.24,144.67 862.22,146.43 C862.79,147.44 864.81,150.00 866.71,152.10 L 870.17 155.93 L 866.83 157.97 C861.41,161.29 853.15,164.03 845.58,165.02 ZM 491.00 163.41 C484.12,165.46 470.06,166.23 463.63,164.91 C450.97,162.32 439.13,153.85 434.67,144.20 C432.93,140.42 432.50,137.64 432.50,130.00 C432.50,121.81 432.87,119.72 435.15,114.85 C441.99,100.27 456.08,93.15 475.90,94.27 C487.95,94.95 495.08,97.51 500.94,103.25 C507.52,109.69 510.40,116.74 510.46,126.50 L 510.50 134.50 L 481.15 134.77 C454.98,135.00 451.86,135.20 452.40,136.60 C452.73,137.46 453.00,138.56 453.00,139.05 C453.00,140.84 459.44,147.19 463.41,149.30 C466.64,151.02 469.19,151.48 475.55,151.48 C482.60,151.47 484.41,151.07 490.17,148.24 C493.79,146.46 497.14,145.00 497.62,145.00 C499.14,145.00 507.15,154.95 506.49,156.02 C505.52,157.58 497.13,161.59 491.00,163.41 ZM 152.20 164.89 C134.26,168.66 115.11,162.25 106.65,149.65 C101.66,142.22 99.61,135.07 100.31,127.53 C102.29,106.41 117.42,94.00 141.19,94.00 C162.35,94.00 176.55,106.29 177.79,125.68 C178.16,131.42 177.95,133.42 176.89,134.09 C176.12,134.57 162.96,134.98 147.64,134.98 L 119.78 135.00 L 120.47 137.75 C121.51,141.94 125.65,146.77 130.31,149.25 C133.70,151.06 136.05,151.47 142.67,151.42 C149.84,151.36 151.67,150.94 157.62,148.02 L 164.40 144.68 L 168.74 149.59 L 173.07 154.50 L 170.29 156.77 C166.29,160.03 158.34,163.59 152.20,164.89 ZM 1017.50 163.59 C1012.29,165.17 998.05,166.15 992.00,165.35 C981.72,163.98 966.00,158.56 966.00,156.39 C966.00,155.19 972.50,145.00 973.27,145.00 C973.72,145.00 975.85,145.90 978.01,147.00 C994.08,155.21 1019.52,152.53 1016.48,142.95 C1015.55,140.01 1011.58,138.40 1000.65,136.55 C985.75,134.01 978.62,131.51 974.10,127.21 C969.63,122.95 967.55,116.92 968.61,111.29 C969.56,106.23 977.03,98.87 983.54,96.60 C990.10,94.30 1005.65,93.46 1014.88,94.91 C1021.30,95.91 1032.00,99.49 1032.00,100.64 C1032.00,100.85 1030.59,103.53 1028.86,106.60 C1026.61,110.57 1025.26,112.01 1024.11,111.65 C1023.22,111.36 1020.47,110.35 1018.00,109.40 C1012.41,107.25 994.68,106.84 991.26,108.79 C987.78,110.77 987.26,114.72 990.12,117.54 C991.94,119.33 995.44,120.48 1005.00,122.44 C1021.49,125.83 1024.11,126.60 1028.09,129.28 C1033.33,132.81 1036.00,137.50 1036.00,143.19 C1036.00,152.82 1029.55,159.93 1017.50,163.59 ZM 652.94 164.45 C641.37,167.18 630.35,165.35 624.12,159.67 C618.77,154.79 618.05,151.20 618.02,129.30 L 618.00 109.10 L 611.75 108.80 L 605.50 108.50 L 605.50 95.50 L 611.75 95.20 L 618.00 94.90 L 618.00 74.00 L 638.00 74.00 L 638.00 94.86 L 643.60 95.56 C646.68,95.94 651.40,95.99 654.10,95.67 L 659.00 95.09 L 659.00 109.00 L 638.00 109.00 L 638.00 146.09 L 640.57 148.66 C642.88,150.97 643.72,151.18 648.82,150.75 C651.94,150.49 655.24,149.96 656.14,149.58 C657.45,149.01 658.18,150.06 659.80,154.88 C662.23,162.06 662.05,162.31 652.94,164.45 ZM 908.99 148.71 C914.47,151.61 923.66,151.79 929.54,149.12 C938.31,145.14 943.27,134.29 941.00,124.08 C937.94,110.39 921.88,103.92 908.22,110.89 C900.48,114.84 897.46,121.27 898.25,132.20 C898.66,137.95 899.24,139.73 901.70,142.77 C903.33,144.78 906.61,147.45 908.99,148.71 ZM 554.23 149.94 C559.74,151.63 569.37,150.56 574.22,147.72 C580.59,143.98 583.49,138.29 583.50,129.50 C583.50,116.01 575.83,108.56 562.01,108.61 C546.12,108.68 536.86,121.03 541.11,136.50 C542.42,141.27 549.45,148.47 554.23,149.94 ZM 737.99 150.07 C742.23,151.36 748.88,151.08 752.78,149.45 C770.59,142.01 769.65,114.73 751.40,109.43 C736.15,105.00 722.00,114.66 722.00,129.50 C722.00,139.47 727.84,146.98 737.99,150.07 ZM 691.76 129.14 L 691.50 163.50 L 672.00 164.07 L 672.00 96.00 L 680.42 96.00 C685.05,96.00 689.55,95.72 690.43,95.39 C691.88,94.83 692.00,98.03 691.76,129.14 ZM 366.75 117.42 C367.16,117.83 374.25,118.02 382.50,117.83 C396.72,117.52 397.74,117.36 402.13,114.78 C409.57,110.40 411.81,102.58 408.01,94.21 C405.05,87.68 401.09,86.38 381.75,85.61 L 366.00 84.97 L 366.00 100.82 C366.00,109.54 366.34,117.00 366.75,117.42 ZM 282.78 81.19 C266.10,97.06 263.70,99.00 260.69,99.00 C256.72,99.00 254.30,96.73 253.38,92.14 C252.78,89.16 253.24,88.43 259.64,82.21 C263.44,78.52 275.86,66.39 287.25,55.25 C306.35,36.56 308.22,35.00 311.52,35.00 C313.98,35.00 315.86,35.76 317.55,37.45 C322.25,42.16 320.71,45.73 309.60,55.94 C305.14,60.03 293.08,71.40 282.78,81.19 ZM 223.32 141.07 C218.53,142.18 218.34,142.17 213.52,140.40 C209.11,138.79 203.59,133.95 201.41,129.80 C200.64,128.31 200.01,124.49 200.02,121.30 C200.04,113.22 202.89,108.45 209.87,104.80 C223.47,97.69 237.74,105.19 238.81,120.03 C239.55,130.30 233.33,138.74 223.32,141.07 ZM 452.52 123.03 C452.91,123.67 460.36,123.94 472.82,123.77 L 492.50 123.50 L 492.17 120.50 C491.72,116.28 487.46,111.11 482.62,108.91 C475.34,105.61 463.07,106.96 457.79,111.65 C455.24,113.91 451.66,121.65 452.52,123.03 ZM 814.00 122.59 C814.00,123.82 817.00,124.00 833.75,123.77 L 853.50 123.50 L 853.34 120.10 C852.86,110.25 838.91,104.21 826.30,108.40 C819.38,110.70 814.00,116.91 814.00,122.59 ZM 120.49 122.98 C121.14,124.04 158.18,124.49 159.21,123.45 C160.59,122.08 157.51,114.78 154.40,112.05 C144.32,103.19 124.78,107.04 120.95,118.65 C120.35,120.47 120.14,122.42 120.49,122.98 ZM 691.75 81.58 C687.95,85.72 682.42,86.89 677.38,84.62 C670.61,81.56 669.12,75.14 673.92,69.77 C676.62,66.75 677.30,66.50 683.00,66.50 C688.70,66.50 689.38,66.75 692.08,69.77 C695.87,74.01 695.79,77.17 691.75,81.58 ZM 319.55 98.55 C316.46,101.63 312.99,101.68 310.17,98.69 C305.84,94.08 308.77,87.00 315.00,87.00 C321.39,87.00 324.13,93.96 319.55,98.55 ZM 307.96 177.07 C305.90,180.93 298.00,178.36 298.00,173.83 C298.00,171.72 301.24,169.00 303.76,169.00 C306.20,169.00 309.00,171.48 309.00,173.64 C309.00,174.46 308.53,176.00 307.96,177.07 ZM 320.43 138.08 C318.31,140.42 317.13,140.48 314.17,138.40 C311.20,136.33 311.68,133.02 315.24,131.03 C317.32,129.87 318.41,129.77 319.74,130.60 C322.17,132.12 322.51,135.78 320.43,138.08 ZM 275.90 201.75 C274.98,204.23 273.06,204.66 271.20,202.80 C268.57,200.17 271.00,195.29 274.30,196.56 C276.39,197.36 276.91,199.05 275.90,201.75 ZM 163.50 141.00 C161.58,143.12 160.75,143.41 159.67,142.33 C157.97,140.63 159.19,139.00 162.15,139.00 C165.25,139.00 165.27,139.04 163.50,141.00 Z" fill="rgb(32,47,74)"/>
<path d="M 0.00 120.50 L 0.00 0.00 L 518.50 0.00 L 1037.00 0.00 L 1037.00 120.50 L 1037.00 241.00 L 518.50 241.00 L 0.00 241.00 L 0.00 120.50 ZM 197.18 238.07 C199.01,236.63 201.63,230.53 207.50,214.07 L 215.36 192.00 L 222.43 191.99 C237.69,191.98 255.31,185.28 267.82,174.74 C288.33,157.47 297.63,128.43 290.99,102.45 C289.88,98.12 288.55,94.15 288.04,93.64 C287.46,93.06 283.25,96.36 276.95,102.35 L 266.80 112.00 L 266.60 121.25 C266.27,136.63 260.11,149.01 248.27,158.10 C240.15,164.33 232.60,167.10 222.00,167.73 C214.56,168.17 212.57,167.90 206.00,165.56 C193.65,161.17 195.05,160.89 185.55,169.64 C180.86,173.96 177.01,177.81 177.01,178.18 C177.00,179.15 190.77,186.53 195.24,187.96 C197.29,188.61 199.20,189.51 199.47,189.96 C199.88,190.62 198.25,196.32 195.50,203.81 C195.16,204.74 189.17,202.11 175.26,194.94 C164.39,189.33 155.61,184.36 155.74,183.89 C155.88,183.42 162.52,176.57 170.49,168.66 C186.10,153.19 186.93,151.72 182.93,146.63 C181.33,144.60 179.97,144.00 176.99,144.00 C174.86,144.00 172.84,144.45 172.49,145.01 C172.15,145.56 173.25,147.69 174.94,149.74 C176.62,151.78 178.00,154.21 178.00,155.14 C178.00,159.31 161.27,168.59 151.71,169.72 C146.74,170.31 146.03,170.80 134.51,181.82 C127.91,188.13 122.09,194.32 121.58,195.57 C119.80,200.00 126.65,206.81 131.64,205.56 C133.09,205.19 137.06,202.23 140.45,198.97 L 146.61 193.05 L 150.06 195.38 C151.95,196.66 161.60,201.90 171.50,207.02 C181.40,212.14 189.61,216.40 189.75,216.50 C189.88,216.59 188.84,219.52 187.42,223.01 C184.16,231.03 184.68,235.23 189.30,238.04 C193.28,240.47 194.13,240.47 197.18,238.07 ZM 275.90 201.75 C276.91,199.05 276.39,197.36 274.30,196.56 C271.00,195.29 268.57,200.17 271.20,202.80 C273.06,204.66 274.98,204.23 275.90,201.75 ZM 540.50 172.75 C540.50,162.99 540.70,155.00 540.95,155.00 C541.20,155.00 542.82,156.37 544.54,158.04 C548.12,161.51 559.67,165.95 565.20,165.98 C580.24,166.06 595.64,156.76 601.27,144.18 C604.43,137.12 604.82,124.18 602.10,116.95 C596.54,102.20 586.48,95.32 568.94,94.26 C558.24,93.62 551.12,95.49 545.28,100.49 L 541.12 104.06 L 540.81 99.78 L 540.50 95.50 L 530.75 95.21 L 521.00 94.93 L 521.00 143.00 L 521.00 191.07 L 530.75 190.79 L 540.50 190.50 L 540.50 172.75 ZM 307.96 177.07 C308.53,176.00 309.00,174.46 309.00,173.64 C309.00,171.48 306.20,169.00 303.76,169.00 C301.24,169.00 298.00,171.72 298.00,173.83 C298.00,178.36 305.90,180.93 307.96,177.07 ZM 152.20 164.89 C158.34,163.59 166.29,160.03 170.29,156.77 L 173.07 154.50 L 168.74 149.59 L 164.40 144.68 L 157.62 148.02 C151.67,150.94 149.84,151.36 142.67,151.42 C136.05,151.47 133.70,151.06 130.31,149.25 C125.65,146.77 121.51,141.94 120.47,137.75 L 119.78 135.00 L 147.64 134.98 C162.96,134.98 176.12,134.57 176.89,134.09 C177.95,133.42 178.16,131.42 177.79,125.68 C176.55,106.29 162.35,94.00 141.19,94.00 C117.42,94.00 102.29,106.41 100.31,127.53 C99.61,135.07 101.66,142.22 106.65,149.65 C115.11,162.25 134.26,168.66 152.20,164.89 ZM 491.00 163.41 C497.13,161.59 505.52,157.58 506.49,156.02 C507.15,154.95 499.14,145.00 497.62,145.00 C497.14,145.00 493.79,146.46 490.17,148.24 C484.41,151.07 482.60,151.47 475.55,151.48 C469.19,151.48 466.64,151.02 463.41,149.30 C459.44,147.19 453.00,140.84 453.00,139.05 C453.00,138.56 452.73,137.46 452.40,136.60 C451.86,135.20 454.98,135.00 481.15,134.77 L 510.50 134.50 L 510.46 126.50 C510.40,116.74 507.52,109.69 500.94,103.25 C495.08,97.51 487.95,94.95 475.90,94.27 C456.08,93.15 441.99,100.27 435.15,114.85 C432.87,119.72 432.50,121.81 432.50,130.00 C432.50,137.64 432.93,140.42 434.67,144.20 C439.13,153.85 450.97,162.32 463.63,164.91 C470.06,166.23 484.12,165.46 491.00,163.41 ZM 652.94 164.45 C662.05,162.31 662.23,162.06 659.80,154.88 C658.18,150.06 657.45,149.01 656.14,149.58 C655.24,149.96 651.94,150.49 648.82,150.75 C643.72,151.18 642.88,150.97 640.57,148.66 L 638.00 146.09 L 638.00 127.55 L 638.00 109.00 L 648.50 109.00 L 659.00 109.00 L 659.00 102.05 L 659.00 95.09 L 654.10 95.67 C651.40,95.99 646.68,95.94 643.60,95.56 L 638.00 94.86 L 638.00 84.43 L 638.00 74.00 L 628.00 74.00 L 618.00 74.00 L 618.00 84.45 L 618.00 94.90 L 611.75 95.20 L 605.50 95.50 L 605.50 102.00 L 605.50 108.50 L 611.75 108.80 L 618.00 109.10 L 618.02 129.30 C618.05,151.20 618.77,154.79 624.12,159.67 C630.35,165.35 641.37,167.18 652.94,164.45 ZM 751.20 164.00 C753.24,163.41 757.15,161.16 759.90,158.99 L 764.89 155.04 L 765.19 159.27 L 765.50 163.50 L 775.00 163.50 L 784.50 163.50 L 784.76 115.25 L 785.02 67.00 L 775.01 67.00 L 765.00 67.00 L 765.00 85.00 C765.00,94.90 764.63,103.00 764.17,103.00 C763.72,103.00 762.28,101.86 760.97,100.47 C759.56,98.97 755.76,97.07 751.66,95.83 C742.93,93.18 729.77,93.68 722.38,96.95 C703.98,105.09 696.28,127.75 705.51,146.61 C712.81,161.53 733.07,169.24 751.20,164.00 ZM 845.58 165.02 C853.15,164.03 861.41,161.29 866.83,157.97 L 870.17 155.93 L 866.71 152.10 C864.81,150.00 862.79,147.44 862.22,146.43 C861.24,144.67 860.92,144.71 855.68,147.36 C844.49,153.03 832.18,153.15 822.53,147.71 C818.28,145.31 814.00,139.87 814.00,136.87 C814.00,135.13 815.63,135.02 843.25,134.77 L 872.50 134.50 L 872.80 129.19 C873.14,123.36 870.89,114.24 867.92,109.39 C862.30,100.23 852.65,95.17 839.14,94.30 C819.06,93.00 803.96,100.06 797.35,113.84 C795.18,118.36 794.54,121.34 794.20,128.66 C793.82,136.84 794.03,138.38 796.26,143.16 C801.41,154.21 809.96,160.79 823.50,164.13 C831.60,166.12 835.78,166.29 845.58,165.02 ZM 929.57 164.92 C942.68,162.52 954.52,153.86 959.22,143.23 C964.19,132.00 961.89,115.70 954.09,106.84 C946.55,98.28 934.87,94.00 919.03,94.00 C901.03,94.00 886.74,101.69 880.27,114.86 C877.87,119.75 877.50,121.69 877.50,129.50 C877.50,137.31 877.87,139.25 880.27,144.14 C888.03,159.95 908.81,168.71 929.57,164.92 ZM 1017.50 163.59 C1029.55,159.93 1036.00,152.82 1036.00,143.19 C1036.00,137.50 1033.33,132.81 1028.09,129.28 C1024.11,126.60 1021.49,125.83 1005.00,122.44 C995.44,120.48 991.94,119.33 990.12,117.54 C987.26,114.72 987.78,110.77 991.26,108.79 C994.68,106.84 1012.41,107.25 1018.00,109.40 C1020.47,110.35 1023.22,111.36 1024.11,111.65 C1025.26,112.01 1026.61,110.57 1028.86,106.60 C1030.59,103.53 1032.00,100.85 1032.00,100.64 C1032.00,99.49 1021.30,95.91 1014.88,94.91 C1005.65,93.46 990.10,94.30 983.54,96.60 C977.03,98.87 969.56,106.23 968.61,111.29 C967.55,116.92 969.63,122.95 974.10,127.21 C978.62,131.51 985.75,134.01 1000.65,136.55 C1011.58,138.40 1015.55,140.01 1016.48,142.95 C1019.52,152.53 994.08,155.21 978.01,147.00 C975.85,145.90 973.72,145.00 973.27,145.00 C972.50,145.00 966.00,155.19 966.00,156.39 C966.00,158.56 981.72,163.98 992.00,165.35 C998.05,166.15 1012.29,165.17 1017.50,163.59 ZM 23.24 131.53 L 23.50 99.06 L 28.45 105.28 C31.18,108.70 43.25,123.33 55.28,137.79 L 77.16 164.08 L 85.83 163.79 C92.01,163.58 94.47,163.14 94.40,162.25 C94.35,161.56 94.23,140.52 94.15,115.50 L 94.00 70.00 L 84.50 70.00 L 75.00 70.00 L 75.00 101.00 C75.00,121.00 74.65,132.00 74.00,132.00 C73.45,132.00 73.00,131.60 73.00,131.11 C73.00,130.23 57.59,111.34 34.76,84.25 L 22.76 70.00 L 12.88 70.00 L 3.00 70.00 L 3.00 116.33 C3.00,141.82 3.30,162.97 3.67,163.33 C4.03,163.70 8.53,164.00 13.65,164.00 L 22.97 164.00 L 23.24 131.53 ZM 365.78 148.89 L 366.05 134.28 L 372.17 133.64 C375.54,133.29 382.86,133.00 388.44,133.00 C413.50,133.00 428.71,122.59 430.64,104.13 C432.27,88.53 424.46,77.56 408.25,72.71 C402.36,70.95 397.89,70.63 373.25,70.25 L 345.00 69.82 L 345.00 116.24 C345.00,141.78 345.32,162.98 345.70,163.37 C346.09,163.75 350.70,163.94 355.95,163.78 L 365.50 163.50 L 365.78 148.89 ZM 691.76 129.14 C692.00,98.03 691.88,94.83 690.43,95.39 C689.55,95.72 685.05,96.00 680.42,96.00 L 672.00 96.00 L 672.00 130.04 L 672.00 164.07 L 681.75 163.79 L 691.50 163.50 L 691.76 129.14 ZM 163.50 141.00 C165.27,139.04 165.25,139.00 162.15,139.00 C159.19,139.00 157.97,140.63 159.67,142.33 C160.75,143.41 161.58,143.12 163.50,141.00 ZM 223.32 141.07 C233.33,138.74 239.55,130.30 238.81,120.03 C237.74,105.19 223.47,97.69 209.87,104.80 C202.89,108.45 200.04,113.22 200.02,121.30 C200.01,124.49 200.64,128.31 201.41,129.80 C203.59,133.95 209.11,138.79 213.52,140.40 C218.34,142.17 218.53,142.18 223.32,141.07 ZM 320.43 138.08 C322.51,135.78 322.17,132.12 319.74,130.60 C318.41,129.77 317.32,129.87 315.24,131.03 C311.68,133.02 311.20,136.33 314.17,138.40 C317.13,140.48 318.31,140.42 320.43,138.08 ZM 177.61 99.78 C180.18,94.81 189.79,85.27 195.51,81.99 C207.39,75.20 225.50,74.06 237.34,79.36 L 243.18 81.97 L 251.15 74.74 C255.53,70.77 259.76,67.15 260.56,66.71 C261.35,66.26 262.00,65.48 262.00,64.96 C262.00,63.83 247.40,56.36 240.78,54.11 C238.19,53.22 236.05,52.05 236.03,51.50 C235.96,49.15 240.58,38.00 241.63,38.00 C243.26,38.00 260.36,46.24 275.23,54.20 L 280.97 57.26 L 285.23 53.41 C287.58,51.29 289.50,49.13 289.50,48.62 C289.50,47.89 250.62,27.14 246.57,25.71 C246.06,25.53 246.84,22.36 248.32,18.68 C251.52,10.68 251.67,7.67 249.00,5.00 C246.70,2.70 240.36,2.28 237.68,4.25 C236.75,4.94 233.28,13.15 229.98,22.50 C226.68,31.85 223.04,42.04 221.91,45.14 L 219.84 50.78 L 212.17 51.48 C190.45,53.44 169.93,65.43 157.87,83.19 C154.06,88.80 153.65,91.00 156.40,91.00 C158.89,91.00 169.61,96.98 172.47,99.97 C174.07,101.64 175.50,103.00 175.66,103.00 C175.82,103.00 176.70,101.55 177.61,99.78 ZM 319.55 98.55 C324.13,93.96 321.39,87.00 315.00,87.00 C308.77,87.00 305.84,94.08 310.17,98.69 C312.99,101.68 316.46,101.63 319.55,98.55 ZM 282.78 81.19 C293.08,71.40 305.14,60.03 309.60,55.94 C320.71,45.73 322.25,42.16 317.55,37.45 C315.86,35.76 313.98,35.00 311.52,35.00 C308.22,35.00 306.35,36.56 287.25,55.25 C275.86,66.39 263.44,78.52 259.64,82.21 C253.24,88.43 252.78,89.16 253.38,92.14 C254.30,96.73 256.72,99.00 260.69,99.00 C263.70,99.00 266.10,97.06 282.78,81.19 ZM 691.75 81.58 C695.79,77.17 695.87,74.01 692.08,69.77 C689.38,66.75 688.70,66.50 683.00,66.50 C677.30,66.50 676.62,66.75 673.92,69.77 C669.12,75.14 670.61,81.56 677.38,84.62 C682.42,86.89 687.95,85.72 691.75,81.58 ZM 554.23 149.94 C549.45,148.47 542.42,141.27 541.11,136.50 C536.86,121.03 546.12,108.68 562.01,108.61 C575.83,108.56 583.50,116.01 583.50,129.50 C583.49,138.29 580.59,143.98 574.22,147.72 C569.37,150.56 559.74,151.63 554.23,149.94 ZM 120.49 122.98 C120.14,122.42 120.35,120.47 120.95,118.65 C124.78,107.04 144.32,103.19 154.40,112.05 C157.51,114.78 160.59,122.08 159.21,123.45 C158.18,124.49 121.14,124.04 120.49,122.98 ZM 452.52 123.03 C451.66,121.65 455.24,113.91 457.79,111.65 C463.07,106.96 475.34,105.61 482.62,108.91 C487.46,111.11 491.72,116.28 492.17,120.50 L 492.50 123.50 L 472.82 123.77 C460.36,123.94 452.91,123.67 452.52,123.03 ZM 737.99 150.07 C727.84,146.98 722.00,139.47 722.00,129.50 C722.00,114.66 736.15,105.00 751.40,109.43 C769.65,114.73 770.59,142.01 752.78,149.45 C748.88,151.08 742.23,151.36 737.99,150.07 ZM 814.00 122.59 C814.00,116.91 819.38,110.70 826.30,108.40 C838.91,104.21 852.86,110.25 853.34,120.10 L 853.50 123.50 L 833.75 123.77 C817.00,124.00 814.00,123.82 814.00,122.59 ZM 908.99 148.71 C906.61,147.45 903.33,144.78 901.70,142.77 C899.24,139.73 898.66,137.95 898.25,132.20 C897.46,121.27 900.48,114.84 908.22,110.89 C921.88,103.92 937.94,110.39 941.00,124.08 C943.27,134.29 938.31,145.14 929.54,149.12 C923.66,151.79 914.47,151.61 908.99,148.71 ZM 366.75 117.42 C366.34,117.00 366.00,109.54 366.00,100.82 L 366.00 84.97 L 381.75 85.61 C401.09,86.38 405.05,87.68 408.01,94.21 C411.81,102.58 409.57,110.40 402.13,114.78 C397.74,117.36 396.72,117.52 382.50,117.83 C374.25,118.02 367.16,117.83 366.75,117.42 Z" fill="rgb(254,254,254)"/>
</g>
</svg>